<svg width="72" height="20" viewBox="0 0 72 20" fill="none" xmlns="http://www.w3.org/2000/svg">
<path d="M68.5125 14.5287H66.4714C66.0488 14.5287 65.6966 14.249 65.6966 13.8994C65.6966 13.4799 66.0488 13.2701 66.4714 13.2701H70.2015L71.0467 11.3838H66.4714C64.5711 11.3838 63.5146 12.501 63.5146 13.9693C63.5146 15.4376 64.5711 16.415 66.1897 16.415H68.2308C68.6534 16.415 69.0056 16.6947 69.0056 17.0443C69.0056 17.3939 68.7238 17.6736 68.2308 17.6736H63.7259V19.5599H68.2308C70.1311 19.5599 71.1876 18.4427 71.1876 16.9045C71.1876 15.3662 70.2015 14.5287 68.5125 14.5287ZM60.2776 14.5287H58.2365C57.8139 14.5287 57.4617 14.249 57.4617 13.8994C57.4617 13.4799 57.8139 13.2701 58.2365 13.2701H61.9665L62.8118 11.3838H58.2365C56.3362 11.3838 55.2812 12.501 55.2812 13.9693C55.2812 15.4376 56.3362 16.415 57.9562 16.415H59.9973C60.4199 16.415 60.7721 16.6947 60.7721 17.0443C60.7721 17.3939 60.4904 17.6736 59.9973 17.6736H55.4925V19.5599H59.9973C61.8976 19.5599 62.9526 18.4427 62.9526 16.9045C63.0231 15.3677 62.0384 14.5287 60.2776 14.5287ZM47.2575 19.6284H54.2965V17.742H49.5099V16.415H54.2261V14.5287H49.5099V13.2017H54.2965V11.3153H47.2575V19.6298V19.6284ZM42.8935 14.8783H40.5707V13.2017H42.8935C43.5274 13.2017 43.8796 13.6212 43.8796 14.0407C43.8796 14.5301 43.5274 14.8797 42.8935 14.8797M46.1306 13.9708C46.1306 12.3641 45.0036 11.3153 43.1738 11.3153H38.3168V19.6298H40.5692V16.7661H41.4144L43.9486 19.6298H46.6236L43.8781 16.6262C45.2854 16.2766 46.1306 15.2992 46.1306 13.9708ZM34.0951 15.0196H31.7018V13.2031H34.0951C34.729 13.2031 35.0812 13.6226 35.0812 14.1121C35.0812 14.6015 34.7994 15.021 34.0951 15.021M34.3768 11.3182H29.5198V19.6327H31.7722V16.9074H34.3768C36.2771 16.9074 37.404 15.7202 37.404 14.1121C37.3336 12.4355 36.2081 11.3168 34.3768 11.3168M29.0987 11.3168H26.2138L24.1022 13.8324L21.9202 11.3168H18.9635L22.6936 15.4391L18.893 19.6313H21.7779L24.0303 16.9758L26.2828 19.6313H29.2381L25.4376 15.3692L29.0972 11.3168H29.0987ZM11.5737 19.6313H18.6113V17.7449H13.7543V16.4179H18.4704V14.5316H13.7543V13.2046H18.6113V11.3182H11.5737V19.6327V19.6313ZM67.6673 5.72471L64.219 0.694919H61.4031V8.93952H63.6555V3.69852L67.1743 8.93807H69.8493V0.694919H67.6673V5.72617V5.72471ZM54.7162 5.44504L55.9121 2.64974L57.108 5.44504H54.7147H54.7162ZM54.4345 0.693462L50.7748 9.00799H53.2386L53.9429 7.33139H57.8139L58.5182 9.00799H61.0524L57.3223 0.694919H54.4359L54.4345 0.693462ZM47.1152 4.88568V4.74585C47.1152 3.48876 47.8195 2.64974 49.2267 2.64974H51.6905V0.625H49.0154C46.27 0.625 44.8627 2.37152 44.8627 4.67738V4.81722C44.8627 7.40277 46.4813 8.86961 48.945 8.86961H49.7198L50.634 6.98325H49.2972C47.9604 7.05317 47.1152 6.28406 47.1152 4.88714M41.4848 8.93952H43.7373V0.694919H41.4848V8.93952ZM37.1208 4.18795H34.798V2.51135H37.1208C37.7548 2.51135 38.1069 2.93087 38.1069 3.35038C38.1069 3.83981 37.7548 4.18941 37.1208 4.18941M40.3579 3.35038C40.3579 1.7437 39.2309 0.694919 37.4026 0.694919H32.5456V9.00944H34.798V6.07576H35.6432L38.1774 8.94098H40.9228L38.1084 5.93738C39.5156 5.65771 40.3608 4.61038 40.3608 3.35184M24.0318 8.94098H31.0694V7.05463H26.2828V5.72762H30.9285V3.84127H26.2828V2.51427H31.0694V0.694919H24.0318V8.93952V8.94098ZM16.9238 5.86601L15.0221 0.694919H11.5737V8.93952H13.7557V3.00079L15.9377 8.93952H17.9084L20.0904 3.00079V8.93952H22.3428V0.694919H18.8241L16.9238 5.86455V5.86601ZM4.81791 5.44649L6.01383 2.65119L7.20975 5.44649H4.81645H4.81791ZM4.53471 0.694919L0.875061 8.93952H3.33879L4.04314 7.26293H7.91409L8.61843 8.93952H11.1526L7.42105 0.694919H4.53471Z" fill="#006FCF"/>
</svg>
