<svg width="70" height="15" viewBox="0 0 70 15" fill="none" xmlns="http://www.w3.org/2000/svg">
<path d="M14.8929 9.49075C13.9433 13.3707 10.0688 15.7363 6.23879 14.7741C2.40876 13.8114 0.0746065 9.88584 1.02421 6.00589C1.97381 2.12533 5.84825 -0.240231 9.67828 0.722513C9.68497 0.724362 9.69105 0.725594 9.69774 0.727443C13.5174 1.69882 15.8412 5.61821 14.8929 9.49075Z" fill="#F7931A"/>
<path d="M9.57912 6.69304C9.35586 7.59785 7.99382 7.13435 7.55217 7.02341L7.94272 5.44C8.37828 5.54848 9.80238 5.7568 9.57243 6.69304H9.57912ZM9.33579 9.25153C9.09489 10.2377 7.45606 9.70393 6.92438 9.57018L7.35507 7.82159C7.88675 7.95719 9.58764 8.22222 9.33518 9.25153H9.33579ZM11.1218 6.7066C11.2624 5.74263 10.5391 5.22489 9.55905 4.88097L9.88024 3.57553L9.08759 3.37645L8.77491 4.64798C8.5693 4.59621 8.3576 4.54629 8.14772 4.49883L8.46041 3.21373L7.67688 3.01465L7.35568 4.32008L6.85564 4.20729L5.77281 3.93363L5.56537 4.78173C5.56537 4.78173 6.14572 4.91733 6.13477 4.92658C6.3562 4.9537 6.51801 5.15339 6.50098 5.37898L6.13477 6.86501C6.16214 6.87117 6.18952 6.88042 6.21507 6.89213L6.13233 6.86932L5.62073 8.9526C5.57267 9.10483 5.41207 9.18866 5.26121 9.14058C5.26121 9.15168 4.68938 8.99821 4.68938 8.99821L4.30066 9.90301L5.32082 10.1588L5.87866 10.3061L5.55503 11.6251L6.33856 11.8242L6.65975 10.5187C6.87084 10.5773 7.07889 10.6315 7.28268 10.6815L6.96574 11.9912L7.74927 12.1878L8.0729 10.8713C9.41244 11.1271 10.415 11.0248 10.839 9.79885C11.1808 8.81268 10.8213 8.24502 10.1181 7.87398C10.6315 7.7544 11.0111 7.42157 11.1206 6.7066H11.1218Z" fill="white"/>
<path d="M19.4134 12.7149C19.8307 12.7161 20.2413 12.6083 20.6057 12.4024C20.9804 12.1996 21.3107 11.921 21.5748 11.5833C21.8497 11.2264 22.0663 10.827 22.2153 10.4005C22.3729 9.95917 22.4526 9.49383 22.452 9.0254C22.4769 8.54957 22.3765 8.0756 22.1618 7.65216C21.9696 7.32426 21.6125 7.15662 21.0948 7.15662C20.8691 7.16463 20.6446 7.19545 20.425 7.24907C20.1525 7.3107 19.9 7.44322 19.6926 7.63367L18.5094 12.6465L18.6992 12.6828C18.7558 12.697 18.8136 12.7063 18.8707 12.71C18.945 12.7192 19.0192 12.7229 19.094 12.7211L19.4134 12.7143V12.7149ZM21.7646 4.87919C22.2816 4.86686 22.7945 4.97411 23.2647 5.19168C23.6729 5.38891 24.0318 5.67737 24.3141 6.03547C24.603 6.4059 24.8153 6.83118 24.9394 7.28605C25.0745 7.78776 25.1414 8.30611 25.1383 8.82632C25.1377 10.4455 24.5185 12.0005 23.4101 13.1673C22.8729 13.7257 22.2336 14.1726 21.5279 14.4838C20.7882 14.8136 19.9876 14.9818 19.1792 14.9769H18.6073C18.2965 14.9664 17.9862 14.9393 17.6784 14.8955C17.3025 14.8401 16.9296 14.7649 16.5621 14.6693C16.1765 14.5769 15.8023 14.4419 15.4459 14.2669L18.583 0.952403L21.385 0.5L20.2687 5.22558C20.5011 5.11895 20.7426 5.03328 20.9896 4.96979C21.2444 4.90693 21.5066 4.87549 21.7688 4.87734L21.7646 4.87981V4.87919Z" fill="#4D4D4D"/>
<path d="M29.3352 3.90872C28.9702 3.91242 28.6137 3.79347 28.3217 3.57158C28.0121 3.32319 27.8442 2.93489 27.8752 2.53549C27.874 2.28648 27.9263 2.03994 28.0291 1.81374C28.1277 1.59308 28.2658 1.394 28.4379 1.22574C28.6095 1.06056 28.8084 0.927423 29.025 0.831888C29.2506 0.733888 29.494 0.683963 29.7391 0.68458C30.1017 0.683347 30.4545 0.80292 30.7441 1.02357C31.0531 1.27258 31.2204 1.66027 31.1906 2.05966C31.1924 2.30929 31.1407 2.55645 31.0391 2.78326C30.9406 3.00268 30.8031 3.20115 30.6328 3.3688C30.4618 3.5346 30.2629 3.66773 30.0457 3.76265C29.82 3.86065 29.5767 3.90996 29.3316 3.90749H29.3358L29.3352 3.90872ZM28.0334 14.7189H25.3543L27.6179 5.08226H30.3128L28.0334 14.7189Z" fill="#4D4D4D"/>
<path d="M32.6573 2.68298L35.4593 2.24414L34.7627 5.08306H37.7636L37.2228 7.31796H34.2469L33.4524 10.6795C33.3837 10.9372 33.3411 11.201 33.3253 11.4672C33.3088 11.6824 33.3405 11.8987 33.4165 12.1002C33.4913 12.2808 33.6294 12.4269 33.8052 12.5095C34.0577 12.6223 34.3333 12.6741 34.6088 12.6587C34.8917 12.6599 35.1734 12.6315 35.4508 12.5748C35.7294 12.5194 36.0043 12.4442 36.2726 12.3486L36.4734 14.4387C36.0889 14.5786 35.6959 14.6945 35.2969 14.7851C34.8041 14.8911 34.3004 14.9404 33.7967 14.9324C32.9639 14.9324 32.3209 14.8054 31.861 14.557C31.4309 14.3351 31.086 13.974 30.8834 13.5302C30.6851 13.0593 30.5987 12.5477 30.631 12.0374C30.6608 11.4383 30.7453 10.8429 30.8834 10.2592L32.6585 2.67497V2.68422L32.6573 2.68298Z" fill="#4D4D4D"/>
<path d="M37.665 10.8712C37.6595 10.0718 37.794 9.27729 38.0623 8.52533C38.3141 7.81468 38.701 7.16073 39.201 6.60046C39.7047 6.04513 40.3179 5.60259 41.0005 5.30181C41.7451 4.97637 42.5493 4.81366 43.3602 4.82475C43.8499 4.81859 44.3384 4.87098 44.8159 4.98069C45.2174 5.07684 45.608 5.2149 45.9815 5.39241L45.0507 7.51205C44.8098 7.41282 44.5592 7.32714 44.3007 7.24763C43.9916 7.16073 43.6723 7.12005 43.3517 7.12806C42.542 7.09848 41.7633 7.44487 41.2371 8.06923C40.7146 8.69175 40.4524 9.52876 40.4512 10.5803C40.4268 11.1134 40.5655 11.641 40.8484 12.0916C41.113 12.4762 41.6015 12.6678 42.3133 12.6678C42.6539 12.6678 42.994 12.6309 43.3267 12.5569C43.6236 12.4928 43.9144 12.401 44.1954 12.2832L44.3943 14.4639C44.0293 14.6038 43.6564 14.7234 43.2781 14.8208C42.7975 14.9305 42.306 14.9822 41.8132 14.9749C41.1593 14.994 40.509 14.8824 39.8976 14.647C39.4115 14.4485 38.9741 14.1452 38.6158 13.7582C38.2758 13.3828 38.0245 12.9341 37.8816 12.446C37.7301 11.9325 37.6547 11.3988 37.6583 10.8625L37.665 10.8718V10.8712Z" fill="#4D4D4D"/>
<path d="M50.884 7.13655C50.5062 7.13101 50.1369 7.25305 49.8346 7.48295C49.528 7.72332 49.2707 8.02225 49.0778 8.3631C48.8655 8.72551 48.7061 9.11751 48.6046 9.52616C48.5066 9.91816 48.4555 10.32 48.4531 10.725C48.4287 11.2187 48.5279 11.7099 48.7414 12.1549C48.9355 12.4964 49.2841 12.6683 49.7908 12.6683C50.1692 12.6751 50.539 12.5525 50.8402 12.3201C51.1474 12.0797 51.4053 11.7808 51.5994 11.4405C51.8086 11.0775 51.9643 10.6861 52.0617 10.2775C52.159 9.88487 52.2101 9.48178 52.2132 9.07622C52.2381 8.58314 52.1389 8.09067 51.9248 7.64628C51.7308 7.30728 51.3797 7.13532 50.8754 7.13532L50.8846 7.13779L50.884 7.13655ZM49.5444 14.9766C48.9756 14.9901 48.4099 14.8897 47.8788 14.6826C47.4323 14.5038 47.0332 14.2222 46.7133 13.8591C46.3988 13.4936 46.1621 13.0659 46.0167 12.6036C45.8592 12.0853 45.7831 11.5447 45.7935 11.0023C45.7953 10.2553 45.9133 9.51321 46.1445 8.80379C46.3683 8.08944 46.7181 7.42254 47.1756 6.83331C47.6355 6.24469 48.2073 5.75531 48.8564 5.39474C49.5554 5.01383 50.3395 4.82153 51.134 4.83571C51.6997 4.82523 52.2618 4.92508 52.7905 5.12971C53.2376 5.30537 53.6391 5.58334 53.9627 5.94206C54.2754 6.30879 54.5114 6.73593 54.6574 7.19757C54.8162 7.71654 54.8916 8.2577 54.8807 8.80133C54.8782 9.54773 54.7633 10.2892 54.5388 10.9999C54.3186 11.7148 53.9755 12.3848 53.5253 12.979C53.0721 13.5701 52.5027 14.0594 51.853 14.4157C51.1431 14.7984 50.3486 14.992 49.5444 14.9766Z" fill="#4D4D4D"/>
<path d="M59.111 3.90877C58.7466 3.91247 58.3908 3.79413 58.1 3.57163C57.7897 3.32324 57.6225 2.93493 57.6535 2.53554C57.6523 2.28653 57.7046 2.03999 57.8074 1.81379C57.9029 1.59437 58.0379 1.39528 58.2046 1.22579C58.3774 1.06122 58.5763 0.928088 58.7941 0.831937C59.0192 0.733937 59.2613 0.684012 59.5064 0.684628C59.8714 0.681547 60.2285 0.801119 60.5199 1.02362C60.8289 1.27263 60.9962 1.66032 60.9664 2.05971C60.9664 2.30995 60.9135 2.55649 60.8101 2.78331C60.7134 3.00273 60.5759 3.20181 60.4062 3.36885C60.2352 3.53465 60.0363 3.66778 59.8191 3.7627C59.5953 3.86008 59.3544 3.90939 59.111 3.90754V3.90877ZM57.8116 14.719H55.1326L57.3919 5.08231H60.0886L57.811 14.719H57.8116Z" fill="#4D4D4D"/>
<path d="M62.0182 5.52158C62.2213 5.46302 62.447 5.39029 62.6879 5.3114C62.9288 5.23251 63.2105 5.15978 63.5207 5.0852C63.8608 5.01185 64.2045 4.957 64.55 4.92002C64.9795 4.87379 65.4108 4.85222 65.8427 4.85468C67.254 4.85468 68.2268 5.2701 68.7627 6.10095C69.0833 6.59896 69.2457 7.20607 69.25 7.92289V7.97466C69.2475 8.44063 69.1788 8.95281 69.0443 9.51L67.8143 14.7126H65.1261L66.3203 9.61848C66.3914 9.30229 66.4498 8.99411 66.4924 8.69333C66.5387 8.43261 66.5387 8.16635 66.4924 7.90625C66.448 7.68867 66.3294 7.49452 66.1578 7.35646C65.9194 7.19806 65.6359 7.12409 65.3518 7.14628C64.9941 7.1469 64.637 7.18388 64.2866 7.25723L62.5316 14.7219H59.8276L62.0182 5.52219V5.52158Z" fill="#4D4D4D"/>
</svg>
