<svg width="72" height="9" viewBox="0 0 72 9" fill="none" xmlns="http://www.w3.org/2000/svg">
<path d="M47.1522 0.513672C45.9335 0.513672 44.7264 1.60275 44.5975 3.16185V0.639776H42.8397V8.25187H44.621V4.57193C44.621 3.54017 45.371 2.08424 47.1639 2.08424V0.513672H47.1522ZM65.8202 7.03668V1.82057H66.8514C68.2225 1.82057 69.3475 2.65744 69.3475 4.3885C69.3475 6.11957 68.2342 7.03668 66.8514 7.03668H65.8202ZM64.0507 8.25187H67.0624C68.9139 8.25187 71.1874 7.07108 71.1874 4.3885C71.1874 1.70593 68.9139 0.65124 67.0624 0.65124H64.0507V8.25187ZM57.3124 4.46875C57.3124 3.08161 58.0389 1.94667 59.246 1.94667C60.453 1.94667 61.0507 3.08161 61.0507 4.46875C61.0507 5.85589 60.4061 6.99083 59.246 6.99083C58.0858 6.99083 57.3124 5.85589 57.3124 4.46875ZM55.5077 4.549C55.5077 6.81887 56.7147 8.41236 58.6014 8.41236C59.9725 8.41236 60.7928 7.52964 61.2264 6.09664V8.25187H62.9842V0.639776H61.2264V2.65744C60.8397 1.31615 60.0194 0.513672 58.7303 0.513672C56.7967 0.525136 55.5077 2.24474 55.5077 4.549ZM15.3944 8.42383C13.203 8.42383 11.9139 6.70423 11.9139 4.56046C11.9139 2.41669 13.3319 0.525136 16.0389 0.525136C18.746 0.525136 19.7772 2.37084 19.8241 3.42553H17.8085C17.7616 2.84086 17.246 1.95814 16.0038 1.95814C14.6678 1.95814 13.8124 3.09307 13.8124 4.48021C13.8124 5.86736 14.6678 7.00229 16.0038 7.00229C17.2108 7.00229 17.7264 6.07371 17.9374 5.15659H16.0038V4.39997H20.0585V8.25187H18.2772V5.81004C18.1483 6.69276 17.5858 8.42383 15.3944 8.42383ZM23.6678 8.42383C21.9921 8.42383 20.9608 7.33475 20.9608 5.14513V0.65124H22.7655V5.14513C22.7655 6.28006 23.328 6.83033 24.2655 6.83033C26.1171 6.83033 26.7968 4.60632 26.7968 3.04721V0.65124H28.6014V8.25187H26.8436V5.43173C26.5038 6.99083 25.5546 8.42383 23.6678 8.42383ZM39.3944 0.513672C37.8593 0.513672 36.8866 1.9696 36.5702 3.31089C36.5116 1.51104 35.6093 0.513672 34.1561 0.513672C32.9022 0.513672 31.7421 1.60275 31.4374 3.33381V0.639776H29.6796V8.25187H31.4608V5.52344C31.4608 4.84706 31.7538 2.07278 33.5468 2.07278C34.7069 2.07278 34.8241 3.09307 34.8241 4.50314V8.25187H36.6053V5.52344C36.6053 4.84706 36.91 2.07278 38.703 2.07278C39.8632 2.07278 39.9803 3.09307 39.9803 4.50314V8.25187H41.7616V3.74652C41.7733 1.59129 40.9882 0.513672 39.3944 0.513672ZM50.9725 0.513672C48.6639 0.513672 47.1053 2.27913 47.1053 4.46875C47.1053 6.87619 48.5936 8.42383 50.9725 8.42383C53.3514 8.42383 54.8749 6.65837 54.8749 4.46875C54.8632 2.06131 53.3514 0.513672 50.9725 0.513672ZM50.9725 7.07108C49.6249 7.07108 48.7577 5.95907 48.7577 4.46875C48.7577 2.97843 49.6249 1.86642 50.9725 1.86642C52.3202 1.86642 53.1522 2.97843 53.1522 4.46875C53.1522 5.95907 52.3085 7.07108 50.9725 7.07108Z" fill="black"/>
<path d="M5.18738 8.6875C7.56911 8.6875 9.49988 6.7987 9.49988 4.46875C9.49988 2.1388 7.56911 0.25 5.18738 0.25C2.80565 0.25 0.874878 2.1388 0.874878 4.46875C0.874878 6.7987 2.80565 8.6875 5.18738 8.6875Z" fill="#FF90E8"/>
<path d="M4.81238 6.58955C3.54675 6.58955 2.80847 5.60364 2.80847 4.36553C2.80847 3.12742 3.62878 2.0498 5.18738 2.0498C6.74597 2.0498 7.34363 3.11596 7.36707 3.71208H6.20691C6.18347 3.36816 5.8905 2.86375 5.16394 2.86375C4.43738 2.86375 3.89832 3.5172 3.89832 4.30821C3.89832 5.09923 4.3905 5.75267 5.16394 5.75267C5.85535 5.75267 6.16003 5.22533 6.27722 4.68652H5.15222V4.25089H7.49597V6.47491H6.46472V5.0763C6.39441 5.60364 6.078 6.58955 4.81238 6.58955Z" fill="black"/>
</svg>
