<svg width="72" height="17" viewBox="0 0 72 17" fill="none" xmlns="http://www.w3.org/2000/svg">
<path d="M24.6544 11.4251C23.9225 11.4251 23.2393 11.2624 22.6213 10.9371C22.0195 10.6118 21.5315 10.1564 21.1574 9.55461C20.7996 8.95281 20.6207 8.28594 20.6207 7.55402C20.6207 6.82209 20.7996 6.15523 21.1574 5.56969C21.5152 4.98415 22.0032 4.52873 22.6213 4.18717C23.2393 3.86187 23.9062 3.69922 24.6544 3.69922C25.4026 3.69922 26.0694 3.86187 26.6712 4.18717C27.2893 4.51247 27.7773 4.96789 28.1188 5.56969C28.4766 6.15523 28.6556 6.82209 28.6556 7.55402C28.6556 8.28594 28.4766 8.95281 28.1188 9.55461C27.761 10.1401 27.273 10.5956 26.6712 10.9371C26.0694 11.2624 25.3863 11.4251 24.6544 11.4251ZM24.6544 9.74979C25.2724 9.74979 25.7767 9.55461 26.1508 9.14799C26.5248 8.74136 26.72 8.22088 26.72 7.55402C26.72 6.88715 26.5248 6.35041 26.1508 5.96005C25.7767 5.55343 25.2887 5.35825 24.6544 5.35825C24.02 5.35825 23.5158 5.55343 23.1417 5.94379C22.7676 6.33414 22.5887 6.87089 22.5887 7.53775C22.5887 8.20462 22.7676 8.74136 23.1417 9.13172C23.5158 9.55461 24.02 9.74979 24.6544 9.74979Z" fill="#04111D"/>
<path d="M31.6157 6.20411C31.7946 5.92761 32.0549 5.6999 32.3802 5.52098C32.7055 5.34207 33.0958 5.26074 33.535 5.26074C34.0555 5.26074 34.5109 5.39086 34.9338 5.63484C35.3566 5.87881 35.6819 6.23664 35.9097 6.70832C36.1536 7.18001 36.2838 7.71675 36.2838 8.33482C36.2838 8.95289 36.1536 9.48964 35.9097 9.96132C35.6657 10.433 35.3404 10.7908 34.9338 11.0511C34.5109 11.295 34.0555 11.4252 33.535 11.4252C33.1121 11.4252 32.7217 11.3438 32.3802 11.1649C32.0549 10.986 31.7946 10.7746 31.6157 10.4981V13.1167H29.7127V5.34207H31.6157V6.20411ZM34.332 8.33482C34.332 7.8794 34.2018 7.52157 33.9253 7.26133C33.6651 7.00109 33.3398 6.87097 32.9494 6.87097C32.5591 6.87097 32.25 7.00109 31.9735 7.26133C31.7133 7.52157 31.5832 7.89567 31.5832 8.35109C31.5832 8.80651 31.7133 9.16434 31.9735 9.44084C32.2338 9.70108 32.5591 9.8312 32.9494 9.8312C33.3398 9.8312 33.6488 9.70108 33.9253 9.44084C34.2018 9.16434 34.332 8.80651 34.332 8.33482Z" fill="#04111D"/>
<path d="M43.1314 8.25417C43.1314 8.43308 43.1151 8.612 43.0988 8.79091H38.7886C38.8212 9.16501 38.935 9.45778 39.1627 9.65296C39.3904 9.84814 39.6507 9.94573 39.976 9.94573C40.4476 9.94573 40.7892 9.75055 40.9681 9.36019H43.0013C42.9037 9.75055 42.7085 10.1084 42.432 10.4174C42.1717 10.7264 41.8302 10.9867 41.4235 11.1656C41.0169 11.3445 40.5615 11.4421 40.0573 11.4421C39.4555 11.4421 38.9025 11.312 38.4308 11.068C37.9591 10.824 37.585 10.4662 37.3248 9.99452C37.0645 9.52284 36.9182 8.98609 36.9182 8.36803C36.9182 7.74996 37.0483 7.19695 37.3085 6.74153C37.5687 6.26984 37.9428 5.91201 38.4145 5.66804C38.8862 5.42406 39.4392 5.29395 40.0573 5.29395C40.6754 5.29395 41.1958 5.4078 41.6675 5.65177C42.1392 5.89575 42.497 6.23731 42.7573 6.69273C43.0013 7.13189 43.1314 7.65237 43.1314 8.25417ZM41.1796 7.76622C41.1796 7.45719 41.0657 7.19695 40.838 7.01803C40.6103 6.83912 40.3338 6.74153 40.0085 6.74153C39.6832 6.74153 39.423 6.83912 39.1952 7.01803C38.9838 7.19695 38.8537 7.45719 38.7886 7.78249H41.1796V7.76622Z" fill="#04111D"/>
<path d="M47.9296 5.29395C48.6615 5.29395 49.2308 5.52166 49.6699 5.97707C50.1091 6.43249 50.3205 7.05056 50.3205 7.84755V11.3445H48.4338V8.09152C48.4338 7.6849 48.3199 7.37586 48.1085 7.16442C47.897 6.93671 47.6043 6.83912 47.2464 6.83912C46.8886 6.83912 46.5958 6.95297 46.3844 7.16442C46.173 7.39213 46.0591 7.70116 46.0591 8.09152V11.3445H44.1398V5.34274H46.0428V6.13972C46.238 5.87948 46.4983 5.66804 46.8236 5.52166C47.1489 5.37527 47.5229 5.29395 47.9296 5.29395Z" fill="#04111D"/>
<path d="M54.4681 11.4251C53.8988 11.4251 53.3783 11.3275 52.9229 11.1486C52.4675 10.9697 52.1097 10.7094 51.8332 10.3516C51.5729 9.99376 51.4265 9.57087 51.4103 9.08293H53.4434C53.4759 9.35943 53.5735 9.57087 53.7524 9.73352C53.9151 9.87991 54.1428 9.94497 54.4193 9.94497C54.6958 9.94497 54.9235 9.87991 55.0862 9.76605C55.2488 9.63593 55.3301 9.45702 55.3301 9.24557C55.3301 9.06666 55.2651 8.90401 55.135 8.79016C55.0048 8.6763 54.8422 8.56245 54.6633 8.49739C54.4844 8.41606 54.2078 8.33474 53.8663 8.22088C53.3621 8.0745 52.9555 7.92811 52.6302 7.76546C52.3049 7.61908 52.0283 7.39137 51.8006 7.0986C51.5729 6.80583 51.4591 6.41547 51.4591 5.94379C51.4591 5.24439 51.7193 4.69138 52.2561 4.30102C52.7765 3.8944 53.4759 3.69922 54.3217 3.69922C55.1675 3.69922 55.8831 3.8944 56.4036 4.30102C56.9241 4.69138 57.2169 5.24439 57.2494 5.96005H55.1837C55.1675 5.71608 55.0699 5.5209 54.9072 5.39078C54.7446 5.24439 54.5169 5.17933 54.2566 5.17933C54.0289 5.17933 53.8338 5.24439 53.7036 5.35825C53.5573 5.4721 53.4922 5.63475 53.4922 5.86246C53.4922 6.10643 53.606 6.30161 53.85 6.43173C54.094 6.56185 54.4518 6.70824 54.956 6.87089C55.4603 7.03354 55.8669 7.19619 56.1759 7.34257C56.5012 7.48896 56.7777 7.71667 57.0054 7.99317C57.2331 8.28594 57.347 8.64377 57.347 9.09919C57.347 9.52208 57.2331 9.91244 57.0054 10.2703C56.7777 10.6281 56.4524 10.9046 56.0295 11.116C55.5741 11.3275 55.0699 11.4251 54.4681 11.4251Z" fill="#04111D"/>
<path d="M64.3571 8.25417C64.3571 8.43308 64.3409 8.612 64.3246 8.79091H60.0144C60.0469 9.16501 60.1608 9.45778 60.3885 9.65296C60.6162 9.84814 60.8764 9.94573 61.2017 9.94573C61.6734 9.94573 62.015 9.75055 62.1939 9.36019H64.227C64.1294 9.75055 63.9343 10.1084 63.6577 10.4174C63.3975 10.7264 63.0559 10.9867 62.6493 11.1656C62.2427 11.3445 61.7873 11.4421 61.2831 11.4421C60.6813 11.4421 60.1282 11.312 59.6566 11.068C59.1849 10.824 58.8108 10.4662 58.5505 9.99452C58.2903 9.52284 58.1439 8.98609 58.1439 8.36803C58.1439 7.74996 58.274 7.19695 58.5343 6.74153C58.7945 6.26984 59.1686 5.91201 59.6403 5.66804C60.112 5.42406 60.665 5.29395 61.2831 5.29395C61.9011 5.29395 62.4216 5.4078 62.8933 5.65177C63.365 5.89575 63.7228 6.23731 63.983 6.69273C64.227 7.13189 64.3571 7.65237 64.3571 8.25417ZM62.4053 7.76622C62.4053 7.45719 62.2915 7.19695 62.0638 7.01803C61.8361 6.83912 61.5596 6.74153 61.2343 6.74153C60.909 6.74153 60.6487 6.83912 60.421 7.01803C60.2096 7.19695 60.0795 7.45719 60.0144 7.78249H62.4053V7.76622Z" fill="#04111D"/>
<path d="M64.9916 8.33482C64.9916 7.71675 65.1054 7.18001 65.3494 6.70832C65.5934 6.23664 65.9187 5.87881 66.3416 5.63484C66.7645 5.39086 67.2199 5.26074 67.7404 5.26074C68.1795 5.26074 68.5536 5.34207 68.8952 5.52098C69.2367 5.6999 69.4807 5.91134 69.6596 6.20411V5.35833H71.5626V11.3601H69.6596V10.5143C69.4807 10.7908 69.2205 11.0185 68.8789 11.1975C68.5536 11.3764 68.1632 11.4577 67.7241 11.4577C67.2199 11.4577 66.7645 11.3276 66.3416 11.0836C65.9187 10.8234 65.5934 10.4655 65.3494 9.99385C65.1054 9.5059 64.9916 8.95289 64.9916 8.33482ZM69.6434 8.35109C69.6434 7.89567 69.5132 7.53784 69.2367 7.26133C68.9765 7.00109 68.6512 6.87097 68.2771 6.87097C67.903 6.87097 67.5777 7.00109 67.3012 7.26133C67.041 7.52157 66.9108 7.8794 66.9108 8.33482C66.9108 8.79024 67.041 9.16434 67.3012 9.42458C67.5614 9.68481 67.8867 9.81493 68.2771 9.81493C68.6675 9.81493 68.9765 9.68481 69.2367 9.42458C69.5132 9.1806 69.6434 8.80651 69.6434 8.35109Z" fill="#04111D"/>
<path d="M17.1399 8.41667C17.1399 12.9058 13.4966 16.5492 9.00742 16.5492C4.51829 16.5492 0.874939 12.9058 0.874939 8.41667C0.874939 3.92753 4.51829 0.28418 9.00742 0.28418C13.4966 0.28418 17.1399 3.92753 17.1399 8.41667Z" fill="#2081E2"/>
<path d="M4.89237 8.69298L4.9249 8.64419L7.03934 5.3424C7.07187 5.2936 7.13693 5.2936 7.16946 5.35866C7.52729 6.15565 7.82006 7.13155 7.68994 7.74961C7.62488 8.00985 7.46223 8.35142 7.26705 8.66045C7.25079 8.70925 7.21826 8.75804 7.18573 8.79057C7.16946 8.80684 7.1532 8.8231 7.12067 8.8231H4.94116C4.89237 8.80684 4.85984 8.74178 4.89237 8.69298Z" fill="white"/>
<path d="M14.3098 9.31117V9.83165C14.3098 9.86418 14.2936 9.88045 14.261 9.89671C14.0984 9.96177 13.5291 10.222 13.3014 10.5473C12.6996 11.3768 12.2442 12.5642 11.2358 12.5642H6.9906C5.49423 12.5642 4.27435 11.3443 4.27435 9.83165V9.78286C4.27435 9.75033 4.30688 9.7178 4.33941 9.7178H6.73036C6.77916 9.7178 6.81169 9.76659 6.81169 9.79912C6.79542 9.94551 6.82795 10.1082 6.89301 10.2545C7.0394 10.5473 7.33217 10.71 7.6412 10.71H8.81228V9.79912H7.65747C7.59241 9.79912 7.55988 9.73406 7.59241 9.68527C7.60867 9.669 7.62494 9.65274 7.6412 9.62021C7.75506 9.45756 7.90144 9.22985 8.06409 8.95334C8.17795 8.77443 8.27554 8.56298 8.35686 8.36781C8.37313 8.33528 8.38939 8.30274 8.40565 8.25395C8.42192 8.18889 8.45445 8.12383 8.47072 8.07504C8.48698 8.02624 8.50324 7.97745 8.51951 7.92865C8.55204 7.766 8.56831 7.58709 8.56831 7.39191C8.56831 7.32685 8.56831 7.24552 8.55204 7.1642C8.55204 7.08287 8.53577 7.00155 8.53577 6.92022C8.53577 6.85516 8.51951 6.77384 8.50325 6.70878C8.48698 6.59492 8.47072 6.49733 8.43819 6.38348L8.42192 6.35095C8.40566 6.28589 8.38939 6.20456 8.35686 6.1395C8.2918 5.91179 8.21048 5.68409 8.12915 5.48891C8.09662 5.40758 8.06409 5.32626 8.03156 5.24493C7.98277 5.13108 7.93397 5.01722 7.88518 4.91963C7.86891 4.87084 7.83638 4.83831 7.82012 4.78951C7.80385 4.74072 7.77132 4.69192 7.75506 4.64313L7.70626 4.54554L7.55988 4.2853C7.54361 4.25277 7.57614 4.20397 7.60867 4.22024L8.50325 4.46421L8.6171 4.49674L8.74722 4.52927L8.79601 4.54554V4.00879C8.79601 3.74855 9.00746 3.53711 9.25143 3.53711C9.38155 3.53711 9.49541 3.5859 9.57673 3.66723C9.65806 3.74855 9.70685 3.86241 9.70685 3.99253V4.77325L9.80444 4.80578C9.80444 4.80578 9.82071 4.80578 9.82071 4.82204C9.83697 4.83831 9.8695 4.87084 9.9183 4.90337C9.95083 4.9359 9.98336 4.96843 10.0322 5.00096C10.1135 5.06602 10.2273 5.16361 10.3412 5.2612C10.3737 5.29373 10.4062 5.30999 10.4225 5.34252C10.5689 5.47264 10.7315 5.63529 10.8942 5.8142C10.943 5.863 10.9755 5.91179 11.0243 5.96059C11.0731 6.00938 11.1056 6.07444 11.1544 6.12324C11.2032 6.1883 11.2683 6.26962 11.3171 6.33468C11.3333 6.36721 11.3659 6.39974 11.3821 6.44854C11.4472 6.54613 11.496 6.64372 11.5611 6.74131C11.5773 6.7901 11.6099 6.8389 11.6261 6.88769C11.6912 7.01781 11.74 7.14793 11.7562 7.29432C11.7725 7.32685 11.7725 7.35938 11.7725 7.37564C11.7888 7.40817 11.7888 7.45697 11.7888 7.50576C11.805 7.65215 11.7888 7.78227 11.7725 7.92865C11.7562 7.99371 11.74 8.04251 11.7237 8.10756C11.7074 8.15636 11.6912 8.22142 11.6586 8.28648C11.6099 8.40033 11.5448 8.51419 11.4797 8.62804C11.4635 8.66057 11.4309 8.70937 11.3984 8.75816C11.3659 8.80696 11.3333 8.83949 11.3171 8.88828C11.2846 8.93708 11.2358 8.98587 11.2032 9.03467C11.1707 9.08346 11.1382 9.13226 11.0894 9.18105C11.0406 9.24611 10.9755 9.31117 10.9267 9.37623C10.8942 9.40876 10.8617 9.45756 10.8129 9.49009C10.7803 9.52262 10.7478 9.57141 10.699 9.60394C10.6502 9.65274 10.6014 9.70153 10.5526 9.73406L10.455 9.81539C10.4388 9.83165 10.4225 9.83165 10.4062 9.83165H9.69059V10.7425H10.5852C10.7803 10.7425 10.9755 10.6774 11.1219 10.5473C11.1707 10.4985 11.3984 10.3033 11.6749 10.0106C11.6858 9.99972 11.6966 9.9943 11.7074 9.9943L14.1797 9.27864C14.2773 9.22985 14.3098 9.26238 14.3098 9.31117Z" fill="white"/>
</svg>
