<svg width="65" height="20" viewBox="0 0 65 20" fill="currentColor" xmlns="http://www.w3.org/2000/svg">
<path d="M63.9693 7.13375C63.74 5.34862 63.0991 3.72286 61.9778 2.53278C60.7877 1.41149 59.162 0.770583 57.3769 0.54128C55.6605 0.311977 54.4922 0.380767 54.4922 0.380767C54.4922 0.380767 53.3251 0.334907 51.6076 0.54128C49.8225 0.770583 48.1967 1.41149 47.0066 2.53278C45.8853 3.72286 45.2444 5.34862 45.0151 7.13375C44.7858 8.85008 44.8317 10.0184 44.8317 10.0184C44.8317 10.0184 44.7858 11.1855 44.9922 12.903C45.2215 14.6881 45.8624 16.3139 46.9837 17.504C48.1738 18.6253 49.7995 19.2662 51.5847 19.4955C53.301 19.7248 54.4693 19.656 54.4693 19.656C54.4693 19.656 55.6364 19.7019 57.3539 19.4955C59.1391 19.2662 60.7648 18.6253 61.9549 17.504C63.0762 16.3139 63.7171 14.6881 63.9464 12.903C64.1757 11.1867 64.1069 10.0184 64.1069 10.0184C64.1069 10.0184 64.1986 8.85123 63.9693 7.13375Z" fill="#1E4BC6"/>
<path d="M48.3801 7.20232H50.1194C50.3945 7.20232 50.6227 7.24818 50.852 7.3399C51.0813 7.43162 51.2636 7.5692 51.4241 7.72857C51.5846 7.88793 51.7222 8.07138 51.8128 8.30068C51.9045 8.52998 51.9503 8.75814 51.9503 9.01037C51.9503 9.26261 51.9045 9.49076 51.8128 9.72007C51.721 9.94937 51.5835 10.1328 51.4241 10.2922C51.2647 10.4515 51.0583 10.5903 50.852 10.6808C50.6456 10.7726 50.3945 10.8184 50.1194 10.8184H49.3409V12.2607H48.4019V7.20117H48.3789L48.3801 7.20232ZM49.3191 8.07252V9.92644H50.0517C50.1893 9.92644 50.3269 9.90351 50.4404 9.85765C50.5539 9.81179 50.6468 9.743 50.7385 9.65128C50.8302 9.55956 50.8761 9.46783 50.9219 9.35318C50.9678 9.23853 50.9907 9.12388 50.9907 8.98744C50.9907 8.85101 50.9678 8.73521 50.9219 8.62171C50.8761 8.50705 50.8073 8.41533 50.7385 8.32361C50.6468 8.23189 50.555 8.1631 50.4404 8.11724C50.3257 8.07138 50.1881 8.04845 50.0517 8.04845H49.3191V8.07138V8.07252ZM54.1264 12.2619C53.8742 12.2619 53.646 12.216 53.3938 12.1243C53.1645 12.0326 52.9363 11.895 52.7529 11.7356C52.5695 11.5522 52.4101 11.3458 52.2954 11.0947C52.1808 10.8437 52.112 10.5456 52.112 10.2245C52.112 9.90351 52.1579 9.60656 52.2725 9.35433C52.3872 9.1021 52.5477 8.89687 52.73 8.71343C52.9123 8.52998 53.1416 8.41533 53.3709 8.32476C53.6231 8.23304 53.8513 8.18718 54.1264 8.18718C54.4016 8.18718 54.6527 8.23304 54.8591 8.32476C55.0884 8.41648 55.2707 8.55406 55.4312 8.71343V8.18718H56.3702V12.2619H55.4312V11.6898C55.2936 11.8732 55.0884 12.0108 54.8591 12.1243C54.6297 12.216 54.4016 12.2619 54.1264 12.2619ZM54.2869 11.4146C54.4704 11.4146 54.6298 11.3917 54.7673 11.3229C54.9049 11.2541 55.0425 11.1853 55.156 11.0707C55.2695 10.956 55.3394 10.8414 55.4082 10.7049C55.477 10.5673 55.5 10.4068 55.5 10.2475C55.5 10.0881 55.477 9.92644 55.4082 9.79001C55.3394 9.65242 55.2706 9.51484 55.156 9.42427C55.0413 9.30962 54.9267 9.24082 54.7673 9.17203C54.6068 9.08031 54.4463 9.05738 54.2869 9.05738C54.1276 9.05738 53.9659 9.08031 53.8066 9.1491C53.646 9.21789 53.5314 9.28669 53.4179 9.40134C53.3044 9.51599 53.2115 9.63064 53.1656 9.76707C53.0969 9.90466 53.0739 10.0652 53.0739 10.2245C53.0739 10.3839 53.0969 10.5444 53.1656 10.682C53.2344 10.8196 53.3262 10.9572 53.4179 11.0718C53.5325 11.1865 53.6701 11.2553 53.8066 11.324C53.9441 11.3699 54.1046 11.4158 54.2869 11.4158M57.6749 8.21125L58.8191 10.9812L59.8716 8.21125H60.8565L58.4534 14.117H57.4915L58.3387 12.0796L56.69 8.21125H57.6749Z" fill="white"/>
<path d="M34.583 6.56152V13.4062H32.1111L30.4177 7.77454H30.3719L30.4636 13.4062H28.769V6.56152H31.3326L32.9355 11.9868H32.9584L32.8667 6.56152H34.583Z" fill="#1E4BC6"/>
<path d="M-0.989994 13.475L0.291811 6.56152H3.35989L4.64169 13.475H2.78663L1.84878 7.1795H1.82585L0.863923 13.475H-0.989994Z" fill="#1E4BC6"/>
<path d="M13.5684 6.56152L13.7289 13.475H11.9896L11.9438 7.24829H11.8979L10.7537 13.475H8.99035L7.84613 7.24829H7.80027L7.75441 13.475H6.01515L6.17451 6.56152H9.01328L9.86056 11.8493H9.88349L10.7537 6.56152H13.5684Z" fill="#1E4BC6"/>
<path d="M24.3972 12.4223C24.8776 12.4223 25.0381 12.1013 25.0611 11.919C25.084 11.8502 25.084 11.7356 25.084 11.645V6.5625H26.8462V11.5304C26.8462 11.6679 26.8232 11.919 26.8232 11.9878C26.7086 13.2696 25.679 13.7041 24.3961 13.7041C23.1131 13.7041 22.1065 13.2914 21.993 11.9878C21.993 11.919 21.97 11.6668 21.97 11.5304V6.5625H23.7322V11.6897C23.7322 11.7814 23.7322 11.8732 23.7552 11.9649C23.7781 12.1025 23.9157 12.4223 24.3961 12.4223" fill="#1E4BC6"/>
<path d="M18.5822 11.5066C18.6509 11.6671 18.628 11.8724 18.6051 12.01C18.5592 12.2393 18.3987 12.4674 17.9412 12.4674C17.4838 12.4674 17.2545 12.2152 17.2545 11.8494V11.1856H15.4235V11.7119C15.4235 13.2459 16.6365 13.7034 17.9183 13.7034C19.2001 13.7034 20.185 13.2906 20.3443 12.1464C20.4361 11.5513 20.3673 11.1627 20.3443 11.0251C20.0463 9.58278 17.4597 9.17118 17.2774 8.36977C17.2316 8.23218 17.2545 8.0946 17.2774 8.00403C17.3233 7.77472 17.4838 7.54657 17.8954 7.54657C18.307 7.54657 18.5363 7.7988 18.5363 8.16454V8.59907H20.2526V8.11868C20.2526 6.6305 18.902 6.40234 17.9401 6.40234C16.7271 6.40234 15.7193 6.79101 15.537 7.91345C15.4911 8.21155 15.4682 8.48556 15.5599 8.82952C15.811 10.226 18.2382 10.6146 18.581 11.5078" fill="#1E4BC6"/>
<path d="M38.8411 12.3529C39.3444 12.3529 39.5049 12.0319 39.5508 11.8496C39.5737 11.7808 39.5737 11.6661 39.5737 11.5973V10.5907H38.864V9.58291H41.313V11.4368C41.313 11.5744 41.313 11.6661 41.29 11.8943C41.1754 13.1532 40.077 13.6106 38.8411 13.6106C37.6051 13.6106 36.5286 13.1532 36.4139 11.8943C36.391 11.665 36.391 11.5733 36.391 11.4368V8.52926C36.391 8.41461 36.4139 8.18646 36.4139 8.0718C36.5744 6.76707 37.604 6.35547 38.8411 6.35547C40.0782 6.35547 41.1536 6.76707 41.2671 8.0718C41.29 8.27818 41.29 8.52926 41.29 8.52926V8.75857H39.5508V8.3699C39.5508 8.3699 39.5508 8.20939 39.5278 8.09473C39.5049 7.93422 39.3673 7.59141 38.8411 7.59141C38.3148 7.59141 38.2002 7.93422 38.1543 8.09473C38.1314 8.18645 38.1314 8.30111 38.1314 8.41576V11.5744C38.1314 11.6661 38.1314 11.7579 38.1543 11.8266C38.1543 12.0559 38.3378 12.3529 38.8411 12.3529Z" fill="#1E4BC6"/>
</svg>
