<svg width="70" height="18" viewBox="0 0 70 18" fill="none" xmlns="http://www.w3.org/2000/svg">
<path d="M11.5529 10.7901C11.5529 11.0725 11.3225 11.3029 11.0426 11.3029H7.46241C7.17996 11.3029 6.95202 11.0725 6.95202 10.7901V7.20993C6.95202 6.92748 7.18244 6.69954 7.46241 6.69954H11.0426C11.3225 6.69954 11.5529 6.92996 11.5529 7.20993V10.7901ZM14.6202 13.4758C14.6202 13.9664 14.2188 14.3677 13.7258 14.3677H4.7742C4.28363 14.3677 3.87978 13.9664 3.87978 13.4758V4.52668C3.87978 4.03611 4.28115 3.63226 4.7742 3.63226H13.7258C14.2188 3.63226 14.6202 4.03363 14.6202 4.52668V13.4783V13.4758ZM14.8754 0.5625H3.62459C2.07856 0.5625 0.8125 1.82856 0.8125 3.37459V14.6254C0.8125 16.1714 2.07856 17.4375 3.62459 17.4375H14.8754C16.4214 17.4375 17.6875 16.1714 17.6875 14.6254V3.37459C17.6875 1.82608 16.4214 0.5625 14.8754 0.5625Z" fill="black"/>
<path d="M25.4995 14.541C24.4985 14.541 23.5372 14.1545 22.8583 13.4781C22.2538 12.8736 21.9193 12.0906 21.9193 11.2705H22.9327C22.9327 11.8206 23.1606 12.3508 23.5744 12.7621C24.0624 13.2477 24.7661 13.5276 25.4995 13.5276H25.5069C26.9216 13.5276 28.0712 12.5391 28.0712 11.3226C28.0712 10.4108 27.5658 9.68735 25.113 9.1175C24.1145 8.88708 23.4406 8.57738 22.9921 8.1438C22.5139 7.68049 22.281 7.06604 22.281 6.26082C22.281 4.67515 23.7032 3.38184 25.4524 3.38184C26.2898 3.38184 27.0802 3.66924 27.6773 4.19449C28.2942 4.73461 28.6336 5.46551 28.6336 6.24843H27.6203C27.6203 5.22518 26.6491 4.39518 25.4524 4.39518C24.2557 4.39518 23.2944 5.24995 23.2944 6.26082C23.2944 7.18497 23.6115 7.72756 25.3434 8.12894C27.1917 8.55508 29.0821 9.26863 29.087 11.3176C29.087 12.1897 28.708 13.0049 28.0217 13.6119C27.3502 14.2065 26.4583 14.5336 25.5094 14.5336H25.4995V14.541Z" fill="black"/>
<path d="M34.4238 7.36107C32.6052 7.36107 31.2896 8.7188 31.2896 10.525C31.2896 12.3312 32.6325 13.6319 34.4238 13.6319C36.2151 13.6319 37.4886 12.2172 37.4886 10.5101C37.4886 8.80304 36.1606 7.36107 34.4238 7.36107ZM37.4341 17.4251V12.9877H37.4043C36.7478 13.9936 35.6155 14.5114 34.4238 14.5114C32.1295 14.5114 30.3085 12.7895 30.3085 10.4804C30.3085 8.17125 32.1716 6.47656 34.4238 6.47656C35.6155 6.47656 36.7478 6.99438 37.4043 8.01516H37.4341V6.67229H38.4152V17.4226H37.4341V17.4251Z" fill="black"/>
<path d="M52.4707 7.36152C50.6521 7.36152 49.3365 8.71925 49.3365 10.5254C49.3365 12.3316 50.6793 13.6324 52.4707 13.6324C54.262 13.6324 55.5355 12.2176 55.5355 10.5106C55.5355 8.80349 54.2075 7.36152 52.4707 7.36152ZM55.481 14.331V12.9882H55.4512C54.7798 13.9941 53.6599 14.5119 52.4707 14.5119C50.1764 14.5119 48.3553 12.79 48.3553 10.4833C48.3553 8.17666 50.216 6.47949 52.4707 6.47949C53.6748 6.47949 54.7947 6.98492 55.4512 8.02057H55.481V6.6777H56.4596V14.3335H55.481V14.331Z" fill="black"/>
<path d="M59.3957 9.85152V14.331H58.4146V6.67522H59.3957V7.78024H59.4229C59.8441 6.80158 60.5849 6.54887 61.5785 6.47949V7.51513C60.2356 7.62663 59.3957 8.47892 59.3957 9.85152Z" fill="black"/>
<path d="M65.9638 7.35866C64.4375 7.35866 63.221 8.47854 62.9807 9.97502H68.9567C68.704 8.47607 67.5024 7.35866 65.9613 7.35866M69.9478 10.857H62.9782C63.0476 12.3684 64.4499 13.627 65.9464 13.627C67.1208 13.627 68.2704 12.9556 68.6891 11.8208H69.7223C69.1648 13.4164 67.6535 14.5066 65.9588 14.5066C63.7488 14.5066 61.9698 12.7029 61.9698 10.5027C61.9698 8.30263 63.7463 6.47168 65.9439 6.47168C68.1416 6.47168 69.9626 8.36209 69.9626 10.5746C69.9626 10.6712 69.9453 10.7555 69.9453 10.8546" fill="black"/>
<path d="M46.0166 14.3409V13.1442H45.9893C45.5384 14.0882 44.5399 14.5242 43.5291 14.5242C42.5182 14.5242 41.5172 14.1724 40.8855 13.3721C40.3379 12.6834 40.2115 11.7543 40.2115 10.897V6.65039H41.1952V10.8821C41.1952 12.4703 41.7724 13.6397 43.5291 13.6397C44.1757 13.6397 44.6812 13.4688 45.1593 13.0203C45.8357 12.3737 45.9596 11.613 45.9596 10.7161V6.65287H46.9457V14.3458H46.0166V14.3409Z" fill="black"/>
</svg>
